# xmcd CD database file
#
# Track frame offsets:
#	150
#	13642
#	26572
#	43242
#	64255
#	87315
#	110165
#	134380
#	148602
#	181052
#	202177
#	218817
#
# Disc length: 3218 seconds
#
# Revision: 0
# Processed by: cddbd v1.5.1PL2 Copyright (c) Steve Scherf et al.
# Submitted via: CDex 1.70beta1
#
DISCID=b50c900c
DTITLE=Bathtub Gin Party Band - Favorites
DYEAR=1996
DGENRE=Jazz
TTITLE0=Bathtub Gin
TTITLE1=Dippermouth Blues
TTITLE2=I Can't Get Started With You
TTITLE3=Shake That Thing
TTITLE4=San
TTITLE5=Wolverine Blues
TTITLE6=Jitterbug Waltz
TTITLE7=In a Shanty in Old Shanty Town
TTITLE8=Struttin' With Some Barbecue
TTITLE9=Old Bourbon Street
TTITLE10=I Found A New Baby
TTITLE11=Royal Garden Blues
EXTD=YEAR: 1996
EXTT0=
EXTT1=
EXTT2=
EXTT3=
EXTT4=
EXTT5=
EXTT6=
EXTT7=
EXTT8=
EXTT9=
EXTT10=
EXTT11=
PLAYORDER=
